<?xml version="1.0" standalone="no"?>
<!DOCTYPE svg PUBLIC "-//W3C//DTD SVG 20010904//EN"
 "http://www.w3.org/TR/2001/REC-SVG-20010904/DTD/svg10.dtd">
<svg version="1.0" xmlns="http://www.w3.org/2000/svg"
 width="720.000000pt" height="720.000000pt" viewBox="0 0 720.000000 720.000000"
 preserveAspectRatio="xMidYMid meet">
<metadata>
Created by potrace 1.11, written by Peter Selinger 2001-2013
</metadata>
<g transform="translate(0.000000,720.000000) scale(0.100000,-0.100000)"
fill="#000000" stroke="none">
<path d="M2434 6538 c-3 -4 9 -29 25 -55 28 -45 33 -77 7 -40 -18 24 -43 21
-78 -8 -16 -14 -35 -25 -43 -25 -24 0 -28 -34 -10 -91 5 -16 3 -18 -17 -11
-27 10 -41 9 -85 -1 -42 -11 -49 -33 -15 -51 31 -16 89 -71 103 -97 8 -16 5
-18 -38 -13 -48 4 -48 4 -24 -13 34 -25 93 -83 83 -83 -4 0 -25 14 -46 32 -28
23 -36 26 -28 11 6 -11 19 -26 28 -34 20 -17 64 -85 64 -99 0 -6 -14 -1 -31
12 -39 29 -102 67 -111 68 -4 0 15 -21 43 -47 35 -32 62 -72 89 -127 50 -105
92 -163 135 -183 29 -14 32 -18 19 -30 -7 -8 -18 -12 -22 -9 -10 6 -46 -96
-46 -130 0 -26 -10 -31 -22 -12 -11 17 -22 -23 -23 -82 -1 -59 35 -135 88
-188 22 -22 41 -43 41 -46 0 -17 -27 -1 -64 38 -22 25 -70 74 -105 110 -46 48
-60 70 -53 79 19 23 42 107 47 169 9 124 -27 238 -101 318 -35 37 -56 50 -53
33 3 -19 -2 -43 -8 -43 -5 0 -18 18 -31 40 -12 21 -43 56 -69 77 -25 21 -55
48 -66 61 -11 12 -24 22 -28 22 -4 0 -5 -10 -1 -22 4 -19 3 -21 -9 -12 -8 6
-32 17 -54 24 -22 7 -50 20 -62 28 -22 14 -23 13 -23 -13 0 -28 0 -28 -20 -10
-11 10 -43 22 -70 25 -48 6 -50 5 -50 -18 0 -19 -4 -23 -17 -17 -10 4 -37 10
-61 12 -36 5 -41 3 -36 -11 5 -13 -1 -16 -37 -14 -85 2 -85 2 -39 -43 38 -37
41 -43 27 -54 -14 -10 -13 -16 9 -54 29 -52 29 -51 3 -51 -17 0 -19 -4 -13
-22 15 -50 23 -64 52 -98 30 -34 30 -35 10 -43 -11 -4 -21 -6 -22 -5 -10 23
-82 114 -119 152 -29 29 -64 79 -83 120 -38 79 -44 65 -15 -36 29 -101 0 -80
-72 52 -31 57 -38 57 -16 0 11 -29 18 -55 15 -57 -7 -8 -34 50 -41 91 -10 49
-28 30 -34 -36 -4 -34 -71 79 -71 119 0 10 -5 25 -10 33 -8 13 -14 10 -39 -15
-27 -27 -38 -52 -40 -92 -1 -8 -15 -3 -37 12 -45 31 -45 31 -72 0 -12 -14 -28
-25 -36 -25 -23 0 -48 -41 -35 -56 6 -8 9 -19 7 -25 -2 -7 -20 9 -38 35 l-35
48 -17 -22 c-27 -34 -27 -81 1 -146 l18 -40 -29 -13 c-31 -14 -55 -48 -41 -62
4 -4 22 -10 39 -13 72 -13 121 -47 167 -116 22 -31 21 -39 -1 -34 -42 8 -144
11 -131 3 8 -5 21 -9 30 -9 40 0 199 -98 199 -122 0 -5 -21 2 -48 18 l-47 27
23 -26 24 -25 -39 9 c-21 5 -42 8 -48 8 -16 -1 68 -38 88 -39 27 0 20 -20 -8
-21 -14 -1 -29 -3 -35 -4 -5 -1 -19 -3 -30 -4 -42 -2 -18 -16 28 -16 59 1 111
-10 165 -35 111 -50 212 -59 250 -22 19 20 20 20 65 -4 28 -15 53 -22 67 -18
18 4 26 0 35 -18 7 -12 25 -36 41 -53 80 -86 112 -134 100 -153 -5 -8 -18 -4
-45 14 -51 35 -141 74 -171 74 -22 0 -24 -3 -15 -25 19 -50 2 -56 -51 -18 -58
41 -136 73 -199 80 -25 3 -66 15 -92 28 -48 23 -62 17 -32 -16 14 -15 12 -17
-23 -22 -21 -2 -75 -4 -121 -3 -89 1 -96 -4 -66 -50 17 -24 17 -24 -10 -14
-15 5 -42 10 -59 9 -42 0 -154 -43 -139 -53 7 -4 12 -18 12 -30 0 -20 -6 -24
-46 -30 -25 -3 -61 -13 -80 -22 l-34 -16 23 -19 c21 -18 21 -18 2 -19 -21 0
-120 -43 -143 -62 -16 -14 1 -28 37 -28 13 0 45 -12 71 -26 l48 -26 -26 -25
c-15 -14 -22 -22 -15 -19 6 3 30 -9 52 -28 23 -19 50 -38 61 -41 19 -6 28 -25
12 -25 -5 0 -16 -6 -27 -14 -17 -12 -16 -16 23 -57 24 -27 68 -58 110 -78 l70
-34 -29 -24 -29 -25 37 -20 c101 -54 121 -62 160 -62 26 -1 38 -5 34 -11 -5
-5 -13 -24 -18 -41 l-11 -31 87 -27 c47 -15 92 -30 99 -32 7 -2 29 3 48 11 35
14 35 14 28 -8 -4 -12 -11 -23 -15 -25 -5 -2 -9 -8 -9 -14 0 -7 5 -7 13 -1 6
5 21 8 32 7 11 -1 47 -6 81 -9 48 -6 67 -4 94 10 32 17 34 17 47 -1 8 -11 12
-27 9 -36 -2 -10 0 -18 5 -18 5 0 9 -16 9 -36 l0 -36 -42 8 c-109 20 -259 -10
-208 -41 5 -3 14 -14 20 -24 9 -17 4 -19 -53 -18 -75 1 -102 -5 -156 -32 -23
-12 -57 -23 -76 -24 -42 -4 -53 -13 -26 -22 12 -3 21 -10 21 -14 0 -13 -121
-111 -136 -111 -21 0 -17 -12 14 -37 l27 -22 -27 -1 c-18 0 -35 -11 -56 -37
-50 -64 -54 -78 -31 -99 19 -17 19 -18 -10 -48 -30 -32 -71 -103 -52 -92 23
15 31 -6 12 -32 -19 -28 -51 -98 -51 -113 0 -5 13 -3 28 5 16 8 46 16 68 18
35 3 39 1 37 -18 -3 -24 19 -32 87 -30 41 1 54 -16 29 -41 -8 -8 2 -16 35 -28
44 -17 87 -17 164 -1 13 3 20 1 17 -5 -4 -5 -8 -21 -11 -35 l-5 -25 78 6 c50
4 84 12 95 22 19 17 23 13 30 -32 4 -24 34 -23 117 2 39 12 58 25 72 47 19 31
19 31 20 6 1 -14 1 -29 -1 -35 -1 -5 7 -2 17 7 10 8 37 25 61 37 24 12 52 37
63 56 13 22 25 31 37 28 13 -3 31 17 70 75 28 44 52 84 52 90 0 6 4 13 9 16 4
3 8 -5 7 -17 -1 -12 2 -39 6 -60 5 -20 11 -54 14 -75 5 -34 8 -51 20 -93 4
-13 -1 -15 -21 -11 -17 3 -25 0 -25 -10 0 -12 -10 -14 -50 -10 -42 4 -50 2
-50 -12 0 -12 -7 -17 -22 -15 -13 1 -35 -1 -51 -6 -22 -6 -25 -10 -16 -21 9
-11 6 -14 -17 -15 -16 -1 -32 -1 -36 0 -4 0 -4 -7 -1 -16 5 -14 1 -15 -31 -9
l-38 7 19 -25 c10 -14 21 -26 25 -26 4 0 5 -6 2 -14 -3 -9 5 -21 20 -31 14
-10 23 -22 19 -31 -6 -15 33 -53 56 -54 10 0 11 -3 3 -13 -8 -10 1 -18 39 -36
35 -17 46 -27 37 -32 -7 -5 -8 -9 -3 -10 6 0 24 -3 40 -6 17 -3 51 -7 78 -7
34 -1 46 -5 42 -14 -2 -7 5 -16 18 -21 43 -16 123 7 171 48 41 35 -6 -23 -51
-63 -39 -35 -47 -38 -64 -28 -19 12 -91 39 -133 49 -11 3 -60 7 -107 9 -146 5
-249 -29 -332 -112 -41 -42 -45 -52 -19 -60 9 -3 24 -8 32 -11 10 -3 3 -12
-23 -27 -53 -33 -96 -75 -118 -118 -10 -20 -30 -45 -44 -56 -30 -24 -32 -36
-5 -29 18 5 20 2 16 -21 -12 -62 -25 -104 -40 -126 -14 -23 -14 -24 10 -30 14
-4 30 -4 36 0 6 4 1 -7 -11 -23 -26 -34 -36 -142 -13 -144 6 -1 18 -2 25 -3 8
-1 11 -22 10 -75 -1 -55 1 -71 10 -62 19 19 24 13 26 -32 1 -23 3 -51 5 -62 3
-11 5 -27 5 -35 1 -9 18 5 42 32 41 48 69 61 69 33 0 -20 1 -20 65 15 l55 30
0 -26 c0 -24 2 -25 33 -19 43 10 76 28 114 64 35 34 43 37 43 19 0 -7 4 -19 9
-27 8 -12 16 -10 48 14 51 38 74 63 78 83 2 9 4 18 4 20 1 2 13 -9 29 -23 l27
-25 38 42 c49 55 65 87 61 118 l-4 25 19 -23 c19 -22 38 -31 26 -12 -3 5 6 30
21 55 17 30 26 60 26 85 -1 29 3 40 14 40 12 0 15 17 13 96 -2 142 -29 221
-100 299 -18 21 -18 22 44 88 35 37 66 67 69 67 3 0 14 -17 25 -38 16 -33 17
-44 7 -90 -16 -71 -9 -127 23 -191 28 -54 53 -77 53 -47 0 28 18 17 25 -14 4
-17 27 -54 51 -82 24 -29 44 -55 44 -60 0 -4 5 -8 11 -8 5 0 7 5 4 10 -3 5 -4
10 0 10 9 0 57 -31 82 -53 20 -18 21 -18 32 0 10 17 12 15 15 -16 0 -8 17 -23
36 -34 39 -22 134 -26 168 -8 27 14 50 14 67 -1 11 -11 4 -22 -42 -66 -30 -28
-59 -52 -63 -52 -4 0 -24 13 -44 29 -56 45 -221 75 -250 45 -7 -6 -23 -11 -37
-9 -13 1 -42 -8 -65 -20 -35 -19 -39 -23 -25 -33 13 -9 11 -11 -14 -12 -19 0
-44 -13 -68 -34 -36 -32 -37 -35 -21 -51 17 -16 17 -18 0 -27 -17 -10 -35 -27
-64 -62 -15 -19 -8 -36 15 -36 10 0 4 -13 -21 -40 -20 -22 -36 -46 -36 -54 0
-8 -3 -22 -7 -32 -4 -12 -3 -15 5 -10 26 16 30 -7 7 -41 -23 -32 -23 -37 -9
-48 15 -10 12 -15 -20 -42 l-37 -30 32 -7 c17 -3 42 -6 55 -6 18 0 22 -4 17
-17 -6 -14 0 -15 45 -9 48 6 52 5 52 -14 0 -16 6 -20 34 -20 19 0 46 4 60 10
22 8 26 7 26 -10 0 -18 2 -18 33 -6 17 8 47 17 64 21 28 5 32 4 27 -9 -3 -9
-1 -16 5 -16 6 0 11 5 11 10 0 6 21 23 48 40 26 16 55 40 66 54 48 66 45 63
47 41 1 -11 1 -24 0 -28 -2 -13 32 9 55 35 50 56 78 129 78 203 -1 52 -17 140
-33 176 l-18 40 57 55 c65 61 111 77 64 21 -59 -69 -76 -140 -52 -218 10 -36
28 -53 28 -28 0 5 5 7 10 4 6 -3 10 -14 10 -23 0 -30 44 -122 57 -117 6 2 25
-11 42 -30 17 -19 33 -31 36 -26 3 5 19 -4 37 -20 21 -20 34 -27 41 -20 7 7
19 4 38 -10 15 -10 29 -15 31 -9 2 6 9 6 18 0 12 -7 12 -12 -4 -29 -19 -21
-19 -21 12 -17 39 4 41 -8 7 -37 -21 -18 -28 -38 -39 -105 -12 -77 -12 -83 5
-92 10 -6 29 -10 43 -10 24 0 24 -1 10 -30 -11 -20 -14 -53 -12 -105 2 -65 5
-75 21 -75 10 0 26 4 36 9 15 9 17 2 17 -67 1 -86 32 -169 60 -158 8 3 20 8
28 12 10 4 17 -14 27 -70 9 -51 16 -73 23 -66 5 5 19 10 29 10 18 0 19 -5 14
-57 -4 -32 -10 -68 -13 -80 l-6 -23 45 26 c26 14 60 38 76 53 23 22 31 25 36
14 3 -8 2 -19 -1 -25 -3 -5 7 -3 22 5 31 16 75 60 91 90 9 17 11 16 36 -7 l27
-25 55 53 c48 45 61 68 56 99 -2 14 16 7 34 -13 22 -24 35 -26 35 -4 0 9 23
52 52 95 45 68 53 77 60 59 4 -11 12 -20 18 -20 11 0 13 10 11 50 -1 14 3 39
9 55 18 46 23 69 29 130 1 6 10 -9 21 -33 18 -40 21 -42 36 -27 9 9 18 14 20
12 6 -6 18 -88 17 -114 -1 -19 2 -21 17 -13 10 6 21 10 24 10 10 0 7 -77 -4
-106 -6 -15 -8 -29 -6 -31 6 -6 88 50 106 72 14 16 15 16 20 -4 5 -21 6 -21
40 11 19 18 40 42 46 53 11 20 12 20 33 1 21 -19 21 -19 47 5 37 35 65 76 67
99 1 19 2 19 24 -2 13 -12 26 -18 30 -15 3 4 3 7 -1 7 -8 0 17 50 57 113 30
46 32 47 40 25 11 -26 13 -21 22 45 5 40 11 50 33 59 15 5 35 14 45 19 12 6
17 5 17 -4 0 -15 39 -20 55 -7 7 5 11 -10 12 -48 1 -32 6 -70 12 -86 11 -27
12 -28 31 -11 18 16 19 16 18 -1 -1 -11 2 -36 6 -57 6 -32 10 -36 22 -27 11
10 14 8 15 -11 2 -32 2 -30 -5 -69 l-7 -35 45 48 c26 28 46 42 49 35 6 -19 32
5 47 42 13 31 34 39 44 18 4 -10 7 -9 15 2 5 8 19 26 30 39 12 13 21 35 21 48
0 45 22 18 40 -47 19 -72 51 -139 79 -164 17 -15 18 -14 29 9 14 30 32 33 32
4 0 -33 47 -121 88 -165 21 -22 44 -55 51 -72 13 -30 38 -36 27 -6 -3 8 -3 14
0 14 8 0 69 -32 74 -40 3 -3 20 -15 38 -25 17 -11 32 -25 32 -32 0 -25 21 -12
26 16 l6 30 25 -29 c14 -17 42 -34 66 -41 23 -6 48 -16 55 -21 9 -8 12 -5 12
8 0 11 4 25 9 33 8 12 12 12 25 -2 16 -15 76 -37 104 -37 10 0 10 5 2 20 -10
18 -9 18 23 5 19 -8 56 -16 82 -20 l49 -6 -21 23 c-23 25 -63 89 -63 101 0 4
12 7 26 7 22 0 24 3 15 14 -7 8 -14 28 -16 45 -2 17 -9 40 -16 52 -10 20 -9
21 15 15 22 -5 26 -3 27 16 3 51 -3 76 -31 131 -32 62 -35 72 -20 62 6 -3 19
-3 30 0 16 5 18 10 10 25 -6 10 -10 22 -10 25 0 11 44 -7 88 -36 23 -16 42
-24 42 -19 0 5 -4 12 -10 15 -17 10 -11 27 8 21 9 -3 31 -8 47 -10 68 -12 91
-19 113 -32 20 -13 22 -13 22 5 0 11 -4 23 -10 26 -5 3 -10 11 -10 16 0 5 11
2 26 -7 16 -11 49 -18 94 -19 68 -2 68 -2 59 22 -13 34 -12 35 13 28 26 -9 94
-8 109 0 6 5 4 12 -8 21 -17 13 -16 14 12 12 44 -2 114 12 121 24 4 6 2 8 -4
4 -5 -3 -23 4 -39 17 -15 13 -43 32 -61 43 -28 18 -31 23 -18 33 12 10 7 18
-32 54 -26 23 -48 42 -50 43 -1 1 0 9 4 18 3 9 11 13 17 9 13 -8 -22 41 -55
77 -13 14 -44 39 -70 56 -44 28 -47 32 -34 49 13 18 10 23 -38 58 -45 34 -102
68 -131 78 -5 2 -8 9 -6 14 14 38 11 42 -70 84 -59 31 -90 42 -114 39 -27 -3
-31 -1 -27 14 2 10 9 18 16 19 15 1 -76 28 -139 41 -27 6 -61 15 -73 21 -22
11 -22 12 -5 20 10 4 27 22 39 40 18 28 19 34 7 45 -11 11 -10 18 12 44 20 23
23 33 14 39 -9 5 -10 11 -2 21 5 7 15 27 21 45 l10 31 -33 -14 c-44 -18 -56
-18 -49 1 5 12 -3 15 -40 15 -35 0 -44 3 -40 14 8 20 -29 29 -82 21 -39 -6
-44 -4 -44 13 0 11 15 42 33 70 23 37 40 52 62 56 17 4 49 14 72 22 l42 16
-37 37 -37 36 80 6 c86 6 114 15 185 57 25 14 54 27 65 29 11 2 31 6 45 9 l25
6 -25 13 c-14 7 -28 11 -32 9 -32 -20 41 76 100 133 13 12 33 23 45 25 19 3
16 7 -20 29 l-43 25 34 17 c26 12 41 31 64 79 l30 63 -31 26 -31 26 23 24 c22
23 41 59 55 105 6 19 3 21 -19 16 -29 -5 -30 -4 -10 34 18 37 44 136 38 147
-3 4 -19 -2 -37 -13 -19 -11 -55 -23 -81 -26 l-47 -7 5 30 5 29 -84 -2 c-86
-2 -93 1 -74 37 9 16 7 21 -17 30 -15 7 -36 11 -46 11 -9 0 -15 4 -11 10 6 9
53 5 92 -9 13 -5 11 0 -6 19 -15 17 -18 25 -8 25 7 0 39 10 70 22 31 13 67 21
81 19 29 -6 31 0 10 28 -21 28 -18 35 10 28 17 -4 37 3 70 25 25 17 51 31 56
31 6 0 3 10 -5 22 -21 30 -20 35 8 42 14 3 38 18 56 32 28 24 29 27 13 39 -15
12 -15 13 5 19 12 4 38 24 59 44 l38 37 -30 3 c-102 8 -115 12 -105 32 14 26
13 30 -9 30 -11 0 -22 4 -25 9 -3 5 -23 12 -43 16 l-38 7 22 18 23 18 -33 25
c-35 27 -95 47 -139 47 -32 0 -34 7 -13 37 14 20 13 22 -17 29 -29 6 -30 8
-13 14 12 4 43 11 70 14 90 13 68 19 -59 18 -50 -1 -57 1 -45 13 8 7 50 25 94
39 71 22 74 24 33 20 -31 -4 -48 -2 -48 5 0 10 12 12 93 14 36 1 34 15 -3 29
-17 5 -29 15 -27 22 5 15 93 34 133 29 18 -3 35 1 39 7 11 17 -33 77 -65 89
-30 10 -41 31 -17 31 6 0 21 12 31 27 15 20 17 29 7 42 -12 17 -14 21 -27 66
-9 26 -14 30 -48 30 -36 0 -37 0 -15 15 12 8 36 20 52 26 42 14 44 28 7 54
-30 22 -52 24 -139 17 -19 -2 -26 5 -34 28 -21 66 -46 72 -70 18 -25 -57 -71
-101 -132 -128 -63 -28 -63 -27 -35 59 23 69 21 81 -8 33 -28 -49 -61 -84
-111 -123 -62 -48 -73 -42 -21 12 33 34 37 42 17 29 -35 -22 -46 -14 -18 14
21 21 24 40 8 52 -5 3 -10 19 -12 34 -1 16 -10 34 -18 40 -12 9 -13 15 -5 23
13 13 -13 59 -38 69 -12 4 -13 8 -3 13 8 6 1 17 -24 40 -20 17 -34 37 -31 43
5 13 -25 28 -111 58 -27 9 -44 17 -37 18 39 3 -19 41 -63 41 -20 0 -25 5 -25
24 0 28 15 42 26 25 14 -23 141 -97 204 -119 96 -33 227 -38 304 -11 32 11 74
32 93 47 l35 26 -31 15 c-17 9 -31 18 -31 22 0 3 26 14 58 23 40 12 73 31 112
66 30 27 65 52 78 56 27 9 29 26 2 26 -11 0 -20 3 -20 6 0 12 55 100 78 126
l25 27 -27 7 c-28 7 -34 21 -12 30 25 10 64 134 41 134 -26 0 -36 25 -21 56 7
16 16 44 20 62 5 31 4 33 -16 26 -18 -5 -20 -3 -13 12 4 11 9 48 12 84 6 64 5
65 -13 44 -26 -28 -89 -65 -97 -57 -4 3 -7 14 -7 24 0 16 -3 16 -60 -1 l-60
-18 0 27 c0 26 -2 27 -46 25 -25 -1 -67 -14 -94 -28 -61 -32 -60 -32 -60 -2 0
14 -3 27 -7 29 -15 8 -136 -57 -141 -75 -5 -21 -22 -24 -22 -5 0 8 -8 21 -17
30 -17 14 -22 12 -76 -26 -38 -28 -59 -51 -63 -69 -8 -34 -22 -36 -33 -6 l-8
23 -7 -22 c-4 -13 -17 -31 -30 -40 -28 -23 -45 -54 -48 -88 -2 -17 -8 -25 -18
-23 -10 2 -20 -11 -30 -41 -13 -40 -19 -45 -48 -49 -18 -2 -53 -9 -77 -17 -45
-13 -45 -13 -52 13 -12 48 -61 143 -68 132 -7 -11 -18 -1 -67 60 -14 16 -22
21 -25 13 -6 -16 -23 -17 -23 -2 0 13 -16 28 -52 51 -23 15 -27 16 -32 2 -5
-13 -11 -11 -37 10 -30 26 -56 35 -44 16 9 -15 -1 -12 -37 10 -47 29 -60 26
-42 -7 18 -35 18 -53 1 -53 -10 0 -13 -11 -10 -40 3 -31 1 -39 -10 -34 -9 3
-16 -3 -20 -16 -5 -21 -4 -33 9 -92 5 -24 3 -27 -12 -21 -15 5 -16 1 -11 -33
3 -21 9 -48 12 -59 4 -16 -5 -28 -44 -57 -84 -61 -88 -60 -90 23 -1 52 3 78
15 97 l16 25 -46 -5 c-41 -5 -46 -3 -40 11 16 39 16 57 -1 126 l-18 73 -37 -5
-37 -5 -6 55 c-3 30 -13 69 -22 87 -15 30 -17 31 -30 13 -16 -22 -17 -21 -38
47 -9 30 -26 70 -38 89 l-21 35 -18 -50 c-19 -54 -48 -104 -60 -104 -4 0 -14
9 -21 21 -14 20 -16 19 -72 -40 -32 -34 -60 -61 -62 -61 -2 0 -6 13 -10 30
l-6 30 -47 -24 c-56 -28 -68 -42 -116 -121 -20 -33 -36 -55 -36 -49 0 6 -9 23
-21 38 l-21 26 -28 -39 c-38 -52 -47 -56 -53 -22 -3 16 -18 42 -32 57 -15 16
-24 24 -21 17 4 -6 2 -14 -2 -17 -12 -7 -51 66 -44 83 3 10 0 12 -12 8 -19 -8
-48 2 -41 13 6 9 -17 65 -43 102 -17 26 -19 27 -40 12 -20 -14 -23 -14 -28 3
-17 51 -27 73 -44 88 -16 15 -18 15 -24 -1 -6 -15 -10 -12 -24 13 -22 41 -65
93 -75 93 -5 0 -7 -12 -6 -27 2 -27 -8 -89 -18 -106 -3 -5 -14 -1 -24 9 -10 9
-19 12 -19 7 0 -6 -12 -36 -26 -68 -25 -55 -27 -56 -41 -35 -15 21 -15 21 -33
2 -27 -29 -49 -76 -61 -132 -10 -48 -12 -50 -28 -36 -10 9 -22 16 -27 16 -14
0 -47 -125 -42 -158 4 -28 3 -29 -33 -26 -34 2 -37 0 -37 -24 0 -15 -2 -52 -5
-82 -4 -39 -1 -62 10 -78 18 -29 12 -37 -18 -22 -20 11 -21 10 -14 -6 4 -11 9
-38 10 -60 4 -53 13 -84 33 -107 13 -15 14 -20 3 -26 -10 -7 -5 -24 23 -77 20
-38 50 -84 66 -103 17 -19 28 -37 25 -40 -4 -3 -10 1 -15 9 -8 12 -10 12 -15
-2 -4 -10 -4 -22 0 -28 9 -14 -7 -12 -29 5 -11 8 -27 15 -36 15 -11 0 -30 38
-65 133 -27 72 -58 155 -71 182 -15 35 -19 54 -12 63 6 7 8 33 5 60 -5 46 -4
50 28 75 44 35 56 80 59 226 2 92 7 127 24 169 29 69 15 66 -25 -5 l-32 -58 3
61 c2 34 0 68 -5 75 -6 10 -9 2 -9 -21 0 -36 -20 -83 -20 -48 0 9 -5 20 -10
23 -10 6 -8 -13 7 -67 7 -29 -14 -21 -26 10 -16 40 -25 99 -25 169 -1 71 -8
73 -26 6 -8 -27 -14 -51 -15 -55 -2 -5 -3 -13 -4 -19 -2 -19 -28 8 -56 59 -25
45 -31 92 -22 182 3 35 -25 37 -66 6 l-34 -26 -26 30 c-15 16 -40 36 -57 45
-29 15 -87 17 -96 3z m1226 -432 c0 -3 -4 -8 -10 -11 -5 -3 -10 -1 -10 4 0 6
5 11 10 11 6 0 10 -2 10 -4z m1764 -383 c-4 -27 -8 -57 -9 -67 -1 -12 -10 -20
-27 -22 -24 -2 -26 0 -18 27 9 29 51 109 57 109 3 0 1 -21 -3 -47z m-3786
-120 c9 -12 26 -22 36 -23 18 0 18 -2 -3 -24 l-23 -25 43 -41 c24 -23 54 -46
67 -51 13 -5 22 -15 20 -21 -3 -7 2 -20 10 -28 14 -13 14 -15 -2 -18 -22 -5
-15 -47 20 -116 18 -36 22 -52 13 -62 -8 -9 -5 -25 10 -60 23 -51 25 -64 12
-64 -5 0 -11 14 -15 30 -3 17 -11 29 -18 28 -8 -2 -13 8 -13 26 l1 28 -23 -26
c-26 -31 -47 -33 -65 -8 -14 20 -104 126 -127 149 -7 7 -15 35 -17 61 -3 26
-13 61 -24 79 -19 32 -19 32 5 75 13 24 27 70 31 102 l7 60 19 -25 c10 -13 26
-34 36 -46z m3806 -113 c-5 -4 -20 -11 -33 -15 -21 -6 -23 -5 -17 11 4 11 10
41 13 68 l6 49 20 -53 c10 -28 15 -55 11 -60z m-2554 -155 c0 -12 6 -28 14
-34 8 -6 16 -21 19 -32 4 -16 2 -19 -11 -14 -9 3 -30 9 -47 12 -16 3 -34 9
-40 13 -24 16 -44 19 -38 4 4 -10 -3 -14 -23 -14 -25 1 -27 2 -13 13 17 13 43
55 44 72 0 6 8 27 18 49 21 47 21 56 2 56 -13 0 -14 4 -4 23 7 12 12 23 11 25
-1 1 -2 8 -2 15 1 21 70 -164 70 -188z m2577 113 c-3 -8 -6 -5 -6 6 -1 11 2
17 5 13 3 -3 4 -12 1 -19z m-3097 -160 c86 -90 88 -93 67 -105 -20 -11 -26 -9
-60 29 -30 33 -40 39 -47 28 -7 -12 -11 -9 -18 10 -5 14 -7 31 -4 39 4 10 1
13 -10 9 -17 -7 -54 54 -44 71 13 21 28 10 116 -81z m114 -127 c16 -17 15 -19
-15 -25 -38 -7 -57 11 -31 31 23 17 26 16 46 -6z m954 -11 c22 -28 22 -29 4
-39 -15 -8 -25 -4 -50 23 -17 19 -28 36 -25 40 15 14 50 3 71 -24z m-948 -81
c0 -14 -17 -10 -23 5 -4 10 -1 13 9 9 7 -3 14 -9 14 -14z m12 -49 c-4 -3 -10
-9 -13 -13 -3 -5 -8 2 -11 16 -4 22 -3 24 13 14 10 -6 15 -14 11 -17z m3310
-56 c6 -6 -33 -73 -43 -74 -3 0 -4 14 -1 30 2 17 9 30 14 30 5 0 6 5 3 10 -6
10 17 14 27 4z m-62 -18 c-1 -23 -41 -99 -74 -139 -38 -47 -82 -129 -89 -168
-3 -13 1 -41 8 -61 12 -35 11 -38 -12 -55 -13 -10 -29 -33 -36 -51 -8 -25 -27
-43 -70 -68 -31 -18 -67 -43 -79 -54 -25 -23 -47 -27 -29 -6 7 8 16 28 21 46
8 29 7 32 -10 27 -25 -6 -25 -2 0 38 11 18 24 52 29 76 5 24 12 52 16 62 5 12
3 17 -5 15 -14 -3 -20 18 -21 75 -1 30 -5 37 -18 32 -27 -8 -20 65 10 111 14
22 34 56 44 77 17 36 46 49 60 27 10 -16 35 -12 35 6 0 12 3 14 13 6 6 -5 29
-15 50 -20 34 -9 38 -9 33 5 -5 11 -2 14 11 10 33 -9 38 -9 67 -8 19 1 26 5
23 14 -3 8 1 14 9 14 8 0 14 -5 14 -11z m-3147 -46 c5 -4 -5 -10 -22 -12 -25
-4 -31 -1 -31 14 0 15 5 18 23 13 12 -4 26 -11 30 -15z m-592 -138 c11 -29 5
-28 -16 4 -11 17 -12 25 -4 22 6 -2 16 -14 20 -26z m-42 -64 c11 -24 29 -68
41 -98 12 -30 24 -60 27 -66 4 -10 -58 -13 -123 -5 -7 0 -12 21 -12 46 -1 25
-4 50 -7 55 -3 5 6 28 20 50 14 22 23 45 20 50 -4 6 -1 10 5 10 5 0 19 -19 29
-42z m121 -225 l28 -27 -38 -13 c-34 -12 -43 -10 -106 15 -98 41 -96 58 7 55
74 -2 84 -4 109 -30z m2786 -48 c1 -19 -1 -35 -6 -35 -10 0 -22 59 -14 72 9
15 16 2 20 -37z m-2929 4 c73 -27 83 -36 49 -45 -18 -4 -25 -11 -22 -21 8 -19
-63 -86 -83 -78 -8 3 -18 0 -23 -7 -5 -8 -8 0 -9 22 0 19 -4 44 -8 54 -5 13 0
33 13 58 12 21 22 38 23 38 1 0 28 -10 60 -21z m3432 -205 c-16 -31 -29 -62
-29 -70 0 -18 -6 -18 -41 3 -35 21 -36 29 -6 44 12 7 39 27 60 45 20 19 39 34
41 34 3 0 -8 -25 -25 -56z m-3745 -256 c-5 -7 0 -9 14 -6 15 4 19 2 15 -8 -6
-17 -15 -18 -31 -2 -15 15 -15 28 -1 28 5 0 7 -5 3 -12z m3224 -285 c18 -59
27 -69 46 -54 13 11 16 11 16 0 0 -8 6 -26 14 -41 18 -34 10 -112 -10 -104 -9
3 -16 -4 -20 -19 -10 -40 -32 -39 -40 3 -4 20 -14 53 -22 72 -8 19 -14 47 -14
63 1 28 -11 36 -24 16 -5 -8 -10 -6 -16 5 -7 12 -1 27 19 56 15 22 31 40 34
40 3 0 11 -17 17 -37z m1094 3 c5 3 8 3 8 -1 0 -6 -31 -19 -72 -29 -25 -6 -28
-3 -28 17 0 23 2 24 42 17 24 -5 46 -6 50 -4z m-3162 -1236 c0 -5 -2 -10 -4
-10 -3 0 -8 5 -11 10 -3 6 -1 10 4 10 6 0 11 -4 11 -10z m885 -112 c1 -2 1
-17 -2 -33 -4 -27 -8 -30 -39 -29 -44 2 -46 4 -38 43 7 31 9 33 42 27 19 -3
36 -6 37 -8z m55 3 c0 -5 -7 -24 -15 -42 l-15 -34 4 40 c3 22 5 41 6 43 1 7
20 1 20 -7z m-955 -111 c3 -5 1 -10 -4 -10 -6 0 -11 5 -11 10 0 6 2 10 4 10 3
0 8 -4 11 -10z m485 -150 c0 -5 -7 -10 -16 -10 -8 0 -12 5 -9 10 3 6 10 10 16
10 5 0 9 -4 9 -10z m-10 -32 c0 -5 7 -8 15 -8 8 0 15 -4 15 -10 0 -5 11 -10
25 -10 16 0 25 -6 25 -15 0 -8 5 -16 10 -16 6 -1 14 -2 19 -3 25 -3 19 -17
-16 -39 -21 -14 -66 -50 -101 -82 -52 -48 -60 -59 -48 -69 13 -9 12 -13 -8
-28 -22 -16 -23 -16 -33 23 -8 32 -8 39 4 39 15 0 12 35 -7 69 -9 17 -8 22 4
27 13 5 13 11 -4 45 -11 21 -26 39 -33 39 -8 0 -8 3 2 9 9 6 10 11 2 15 -19
12 -12 23 17 24 38 2 60 7 68 14 7 8 44 -13 44 -24z m523 -28 c26 -31 20 -41
-12 -22 -16 9 -27 22 -24 29 7 18 16 16 36 -7z m153 -99 c55 -41 70 -49 59
-31 -3 6 -1 10 5 10 10 0 8 -15 -7 -57 -3 -7 2 -13 11 -13 9 0 16 -4 16 -10 0
-20 -17 -9 -82 54 -37 35 -81 72 -97 82 -17 10 -31 22 -31 27 0 4 4 6 9 3 5
-3 11 4 15 17 6 21 7 21 26 -9 11 -17 45 -50 76 -73z m1577 -35 c6 -21 6 -41
1 -45 -10 -9 -106 -42 -110 -38 -1 1 -5 27 -9 57 -7 49 -6 53 9 41 13 -11 21
-10 48 8 42 26 51 23 61 -23z m-763 -370 c0 -8 -4 -17 -9 -21 -6 -3 -9 4 -8
15 1 23 17 28 17 6z m-694 -118 c1 -8 -2 -22 -7 -29 -7 -11 -9 -11 -9 3 0 9
-3 24 -7 34 -4 11 -2 15 7 12 7 -2 14 -11 16 -20z"/>
</g>
</svg>
